<?xml version="1.0" ?><svg data-name="Layer 3" id="Layer_3" viewBox="0 0 64 64" xmlns="http://www.w3.org/2000/svg"><defs><style>.cls-1{fill:#c4eff8;}.cls-2{fill:#75acb7;}.cls-3{fill:#c69c6d;}.cls-4{fill:#4e737a;}.cls-5{fill:#be8561;}.cls-6{fill:#fdb281;}.cls-7{fill:#f47b50;}.cls-8{fill:#89a42a;}.cls-9{fill:#b6db38;}.cls-10{fill:#c5e260;}.cls-11{fill:#ccc;}.cls-12{fill:#e6e6e6;}.cls-13{fill:#b75c3c;}.cls-14{fill:#999;}</style></defs><title/><rect class="cls-1" height="46" width="38" x="24" y="2"/><rect class="cls-2" height="2" width="32" x="27" y="15"/><rect class="cls-2" height="2" width="32" x="27" y="19"/><rect class="cls-2" height="2" width="32" x="27" y="23"/><path class="cls-3" d="M15,13H13V9.41A4.4,4.4,0,0,1,17.41,5H20V7H17.41A2.42,2.42,0,0,0,15,9.41Z"/><rect class="cls-4" height="15" width="30" x="28" y="28"/><rect class="cls-2" height="15" width="27" x="28" y="28"/><circle class="cls-5" cx="14" cy="24" r="12"/><ellipse class="cls-6" cx="12.5" cy="24" rx="10.5" ry="11.9"/><path class="cls-7" d="M32,24A12,12,0,0,1,8,24Z"/><rect class="cls-4" height="6" width="30" x="28" y="6"/><rect class="cls-2" height="6" width="27" x="28" y="6"/><rect class="cls-8" height="4" width="6" x="14" y="42"/><path class="cls-9" d="M2,36H32a0,0,0,0,1,0,0v2a4,4,0,0,1-4,4H6a4,4,0,0,1-4-4V36a0,0,0,0,1,0,0Z"/><path class="cls-10" d="M29,38V36H2v2a4,4,0,0,0,4,4H25A4,4,0,0,0,29,38Z"/><polygon class="cls-9" points="32 62 2 62 4 46 30 46 32 62"/><polygon class="cls-10" points="4 46 2 62 29 62 27 46 4 46"/><rect class="cls-11" height="8" width="18" x="8" y="50"/><rect class="cls-12" height="8" width="15" x="8" y="50"/><path class="cls-13" d="M10.84,31.74a11.9,11.9,0,0,0,1.42,1.42L19,26.41V36c.33,0,.66,0,1,0s.67,0,1,0V24H18.59Z"/><path class="cls-13" d="M29.16,31.74,21.41,24H20l-.71.71,8.45,8.45A11.9,11.9,0,0,0,29.16,31.74Z"/><path class="cls-7" d="M14,19a3,3,0,0,1-3-3V15h2v1a1,1,0,0,0,2,0V15h2v1A3,3,0,0,1,14,19Z"/><rect class="cls-14" height="2" width="12" x="11" y="53"/></svg>